<?xml version="1.0" standalone="no"?>
<!DOCTYPE svg PUBLIC "-//W3C//DTD SVG 20010904//EN"
 "http://www.w3.org/TR/2001/REC-SVG-20010904/DTD/svg10.dtd">
<svg version="1.0" xmlns="http://www.w3.org/2000/svg"
 width="512.000000pt" height="512.000000pt" viewBox="0 0 512.000000 512.000000"
 preserveAspectRatio="xMidYMid meet">
<metadata>
Created by potrace 1.11, written by Peter Selinger 2001-2013
</metadata>
<g transform="translate(0.000000,512.000000) scale(0.100000,-0.100000)"
fill="#000000" stroke="none">
<path d="M426 3835 l-427 -426 550 -547 c303 -301 631 -627 729 -725 98 -97
176 -179 174 -182 -3 -3 3 -5 13 -5 10 0 16 -2 13 -5 -2 -3 62 -71 144 -152
82 -82 326 -325 544 -540 l394 -393 433 431 c237 236 473 470 523 519 50 50
91 90 90 90 -1 0 90 91 201 203 112 111 454 451 759 754 l555 553 -428 425
-427 425 -1706 0 -1707 0 -427 -425z m1640 -63 c-37 -42 -532 -532 -537 -532
-4 0 -10 -8 -13 -18 -4 -11 -17 -25 -31 -32 -13 -7 -22 -17 -19 -22 3 -4 -3
-8 -12 -8 -10 0 -15 -2 -12 -5 8 -8 -239 -248 -251 -244 -6 2 -123 116 -260
252 l-248 249 79 76 c44 42 84 79 89 80 5 2 9 7 9 11 0 5 44 51 97 104 l97 95
509 1 c280 0 506 -3 503 -7z m2053 -48 c29 -29 54 -54 56 -54 4 0 250 -251
253 -259 3 -9 -216 -230 -223 -223 -3 3 -5 -2 -5 -11 0 -8 -9 -19 -21 -22 -11
-4 -19 -9 -16 -11 2 -3 -42 -48 -98 -102 -56 -53 -106 -105 -110 -115 -4 -11
-15 -17 -26 -15 -14 2 -879 852 -879 864 0 1 228 2 508 3 l507 0 54 -55z
m-1399 -310 c0 -2 -74 -4 -166 -4 l-165 0 86 84 86 84 79 -80 c44 -44 80 -81
80 -84z m-516 -499 c13 -13 -14 -43 -242 -269 l-257 -255 -87 87 c-47 48 -83
88 -78 90 5 2 89 84 187 182 l178 179 142 0 c113 1 145 -2 157 -14z m1194
-171 l186 -185 -46 -44 c-25 -24 -43 -46 -40 -49 3 -3 0 -6 -7 -6 -7 0 -28
-17 -46 -37 -19 -21 -35 -32 -35 -24 0 8 -2 12 -5 10 -6 -7 -235 220 -235 232
0 5 -4 9 -9 9 -5 0 -66 57 -135 127 -154 155 -155 152 48 153 l138 0 186 -186z
m-582 -948 l-256 -255 -256 255 -255 254 255 255 256 255 256 -255 255 -255
-255 -254z"/>
</g>
</svg>
